<svg width="29" height="28" viewBox="0 0 29 28" fill="none" xmlns="http://www.w3.org/2000/svg">
<g id="bicycle" clip-path="url(#clip0_1_1697)">
<path id="Vector" fill-rule="evenodd" clip-rule="evenodd" d="M6.4992 15.1673C4.5662 15.1673 2.9992 16.7343 2.9992 18.6673C2.9992 20.6004 4.5662 22.1673 6.4992 22.1673C8.43219 22.1673 9.9992 20.6004 9.9992 18.6673C9.9992 16.7343 8.43219 15.1673 6.4992 15.1673ZM0.665863 18.6673C0.665863 15.4457 3.27754 12.834 6.4992 12.834C9.72085 12.834 12.3325 15.4457 12.3325 18.6673C12.3325 21.889 9.72085 24.5007 6.4992 24.5007C3.27754 24.5007 0.665863 21.889 0.665863 18.6673Z" fill="#32BA77"/>
<path id="Vector_2" fill-rule="evenodd" clip-rule="evenodd" d="M21.6659 15.1673C19.7328 15.1673 18.1659 16.7343 18.1659 18.6673C18.1659 20.6004 19.7328 22.1673 21.6659 22.1673C23.5989 22.1673 25.1659 20.6004 25.1659 18.6673C25.1659 16.7343 23.5989 15.1673 21.6659 15.1673ZM15.8325 18.6673C15.8325 15.4457 18.4442 12.834 21.6659 12.834C24.8875 12.834 27.4992 15.4457 27.4992 18.6673C27.4992 21.889 24.8875 24.5007 21.6659 24.5007C18.4442 24.5007 15.8325 21.889 15.8325 18.6673Z" fill="#32BA77"/>
<path id="Vector_3" fill-rule="evenodd" clip-rule="evenodd" d="M18.5306 7.6982C19.0902 8.01737 19.2853 8.72987 18.9661 9.28959L13.6267 18.653C13.6266 18.6532 13.6268 18.6529 13.6267 18.653C13.2118 19.3823 12.4372 19.8332 11.5982 19.8332H6.49919C5.85486 19.8332 5.33252 19.3109 5.33252 18.6665C5.33252 18.0223 5.85486 17.4999 6.49919 17.4999H11.5982L16.9391 8.13375C17.2583 7.57403 17.9708 7.37902 18.5306 7.6982Z" fill="#32BA77"/>
<path id="Vector_4" fill-rule="evenodd" clip-rule="evenodd" d="M4.16583 8.16654C4.16583 7.52222 4.68817 6.99988 5.3325 6.99988H9.99917C10.6435 6.99988 11.1658 7.52222 11.1658 8.16654C11.1658 8.76018 10.7225 9.25026 10.1488 9.3237L14.3954 14.4196C14.8079 14.9147 14.7411 15.6504 14.2461 16.0628C13.751 16.4753 13.0153 16.4085 12.6029 15.9134L7.1194 9.33321H5.3325C4.68817 9.33321 4.16583 8.81087 4.16583 8.16654Z" fill="#32BA77"/>
<path id="Vector_5" fill-rule="evenodd" clip-rule="evenodd" d="M16.2803 4.11198C16.7858 3.55907 17.5045 3.49988 17.9267 3.49988C18.9655 3.49988 20.2226 3.56095 21.3345 4.0078C22.5217 4.48491 23.5191 5.39398 23.9558 6.94324C24.1307 7.56339 23.7696 8.20786 23.1495 8.38268C22.5293 8.55751 21.8848 8.19649 21.7099 7.57633C21.4906 6.79802 21.0558 6.41049 20.4644 6.17286C19.891 5.94242 19.1686 5.8571 18.3392 5.83776L22.7947 18.273C23.0121 18.8796 22.6965 19.5475 22.0899 19.7648C21.4834 19.9822 20.8155 19.6666 20.5981 19.0601L15.9608 6.11732C15.9494 6.08542 15.9394 6.05305 15.9307 6.02027C15.7948 5.50262 15.72 4.72461 16.2803 4.11198Z" fill="#32BA77"/>
</g>
<defs>
<clipPath id="clip0_1_1697">
<rect width="28" height="28" fill="white" transform="translate(0.0825195 0.00012207)"/>
</clipPath>
</defs>
</svg>
