<svg width="29" height="28" viewBox="0 0 29 28" fill="none" xmlns="http://www.w3.org/2000/svg">
<g id="car-01">
<path id="Vector" d="M21.4248 23.0415C21.2048 23.0415 21.0949 23.0415 21.0265 23.1099C20.9581 23.1783 20.9581 23.2883 20.9581 23.5082V24.0705C20.9581 24.5125 21.2389 24.9164 21.6837 25.114C21.7012 25.1218 21.7186 25.1295 21.7359 25.1373C22.0058 25.2578 22.2679 25.3749 22.5805 25.3749H24.5858C24.8983 25.3749 25.1605 25.2578 25.4303 25.1373C25.4477 25.1295 25.4651 25.1218 25.4826 25.114C25.9272 24.9164 26.2081 24.5125 26.2081 24.0705V23.0336C26.2081 22.7354 26.2081 22.5863 26.1259 22.5164C26.0436 22.4465 25.8776 22.4736 25.5455 22.5278C25.5124 22.5332 25.4792 22.5382 25.4457 22.5427L21.8093 23.0239C21.7205 23.0357 21.6311 23.0415 21.5415 23.0415H21.4248Z" fill="#EB963F"/>
<path id="Vector_2" d="M7.65815 23.0414C7.87814 23.0414 7.98813 23.0414 8.05647 23.1098C8.12482 23.1781 8.12482 23.2882 8.12482 23.5081V24.0704C8.12482 24.5123 7.84394 24.9162 7.39929 25.1139C7.38181 25.1217 7.36438 25.1294 7.34699 25.1372C7.07717 25.2577 6.81505 25.3747 6.50247 25.3747H4.49716C4.18459 25.3747 3.92246 25.2577 3.65265 25.1372C3.63525 25.1294 3.61782 25.1217 3.60034 25.1139C3.15569 24.9162 2.87482 24.5123 2.87482 24.0704V23.0335C2.87482 22.7353 2.87482 22.5862 2.95704 22.5163C3.03926 22.4464 3.20532 22.4735 3.53745 22.5277C3.57045 22.5331 3.60374 22.5381 3.63729 22.5425L7.27358 23.0238C7.36241 23.0356 7.45191 23.0414 7.54148 23.0414H7.65815Z" fill="#EB963F"/>
<path id="Vector_3" fill-rule="evenodd" clip-rule="evenodd" d="M2.99824 8.8112C3.28639 8.23489 3.98718 8.00128 4.56349 8.28944L5.73015 8.87277C6.30646 9.16093 6.54006 9.86171 6.25191 10.438C5.96375 11.0143 5.26296 11.2479 4.68666 10.9598L3.52 10.3764C2.94369 10.0883 2.71008 9.38749 2.99824 8.8112ZM26.0852 8.8112C26.3734 9.38749 26.1398 10.0883 25.5634 10.3764L24.3968 10.9598C23.8206 11.2479 23.1198 11.0143 22.8316 10.438C22.5434 9.86171 22.777 9.16093 23.3533 8.87277L24.52 8.28944C25.0963 8.00128 25.7971 8.23489 26.0852 8.8112Z" fill="#EB963F"/>
<path id="Vector_4" fill-rule="evenodd" clip-rule="evenodd" d="M24.2753 10.2616C24.7641 10.7674 25.3679 11.3925 25.8696 12.0639C26.5001 12.9078 27.0832 13.9663 27.0832 15.1662V19.2152C27.0832 20.2388 26.391 21.2408 25.2926 21.3862L21.6563 21.8674C21.6183 21.8724 21.5799 21.875 21.5415 21.875H7.54148C7.50309 21.875 7.46474 21.8724 7.42667 21.8674L3.79036 21.3862C2.69202 21.2408 1.99982 20.2388 1.99982 19.2152V15.1662C1.99982 13.9663 2.58296 12.9078 3.21341 12.0639C3.71505 11.3925 4.31872 10.7677 4.80745 10.2618C4.90671 10.1591 4.92862 10.0692 4.9749 9.93512L6.22596 6.30987C6.45898 5.63454 6.66322 5.04258 6.8894 4.57297C7.13391 4.06529 7.44886 3.60003 7.95977 3.24435C8.47066 2.88866 9.02723 2.74719 9.60318 2.68367C10.1359 2.62493 10.7819 2.62497 11.5189 2.625H17.5641C18.3011 2.62497 18.9471 2.62493 19.4798 2.68367C20.0557 2.74719 20.6124 2.88866 21.1232 3.24435C21.6341 3.60003 21.949 4.06529 22.1935 4.57297C22.4198 5.04258 22.6239 5.6345 22.857 6.30984L24.108 9.93512C24.1517 10.0615 24.1819 10.1649 24.2753 10.2616ZM8.45113 9.625C8.00355 9.625 7.77976 9.625 7.67509 9.47815C7.57042 9.33129 7.64342 9.11975 7.78944 8.69665L8.35562 7.05598C8.61299 6.31021 8.77757 5.83854 8.94272 5.49562C9.15257 5.0599 9.38086 4.90982 9.86006 4.85699C10.2491 4.81409 10.7644 4.81243 11.5783 4.81243H17.5047C18.3186 4.81243 18.8339 4.81409 19.2229 4.85699C19.7021 4.90982 19.9304 5.0599 20.1402 5.49562C20.3054 5.83854 20.47 6.31021 20.7274 7.05598L21.2936 8.69665C21.4395 9.11975 21.5126 9.33129 21.4079 9.47815C21.3033 9.625 21.0794 9.625 20.6318 9.625H8.45113ZM4.43298 13.5092C4.00076 13.2931 3.47517 13.4684 3.25905 13.9006C3.04293 14.3327 3.21813 14.8583 3.65036 15.0745L5.40036 15.9495C5.8326 16.1656 6.35818 15.9905 6.57429 15.5582C6.79042 15.126 6.61522 14.6004 6.18298 14.3842L4.43298 13.5092ZM25.433 15.0745C25.8653 14.8583 26.0404 14.3327 25.8243 13.9006C25.6081 13.4684 25.0826 13.2931 24.6504 13.5092L22.9004 14.3842C22.4682 14.6004 22.2929 15.126 22.509 15.5582C22.7252 15.9905 23.2508 16.1656 23.683 15.9495L25.433 15.0745ZM15.6722 17.5H13.4115C12.2638 17.5 11.69 17.5 11.2456 17.8191C10.9007 18.0668 10.6951 18.4626 10.421 19.1557C10.3006 19.4602 10.2405 19.6125 10.3097 19.723C10.3789 19.8333 10.5363 19.8333 10.8511 19.8333H18.2327C18.5475 19.8333 18.7049 19.8333 18.774 19.723C18.8433 19.6125 18.7831 19.4602 18.6627 19.1557C18.3887 18.4626 18.1831 18.0668 17.8381 17.8191C17.3938 17.5 16.8199 17.5 15.6722 17.5Z" fill="#EB963F"/>
</g>
</svg>
