<svg width="29" height="28" viewBox="0 0 29 28" fill="none" xmlns="http://www.w3.org/2000/svg">
<g id="package">
<path id="Vector" fill-rule="evenodd" clip-rule="evenodd" d="M3.55052 5.98772C3.13974 6.1656 2.875 6.56252 2.875 7.00053V21.5692L13.8946 26.4668C14.1208 26.5673 14.3791 26.5673 14.6054 26.4668L25.625 21.5692V7.00053C25.625 6.56252 25.3603 6.1656 24.9495 5.98772L14.712 1.55439C14.4179 1.42702 14.0821 1.42702 13.788 1.55439L3.55052 5.98772ZM9.13118 8.00429L6.81327 7.00053L14.25 3.78006L16.5679 4.78382L9.13118 8.00429ZM11.9319 9.21716L19.3686 5.99669L21.6867 7.00053L14.25 10.221L11.9319 9.21716ZM7.25 14.5839L10.1667 16.3339V14.5839L7.25 12.8339V14.5839Z" fill="#5237F6"/>
</g>
</svg>
