<svg width="29" height="28" viewBox="0 0 29 28" fill="none" xmlns="http://www.w3.org/2000/svg">
<g id="creative-market">
<path id="Vector" fill-rule="evenodd" clip-rule="evenodd" d="M12.3509 2.78075C13.2521 1.87968 14.492 1.40153 15.7647 1.46436L22.3024 1.78705C24.62 1.90145 26.4731 3.75464 26.5875 6.07226L26.9102 12.6099C26.973 13.8826 26.4949 15.1225 25.5939 16.0236L16.7523 24.8651C14.5163 27.1013 10.8908 27.1013 8.65467 24.8651L3.50948 19.7199C1.27337 17.4838 1.27337 13.8583 3.50948 11.6222L12.3509 2.78075ZM22.5407 7.58386C22.5407 8.55036 21.7607 9.33386 20.7985 9.33386H20.7829C19.8208 9.33386 19.0407 8.55035 19.0407 7.58386C19.0407 6.61736 19.8208 5.83386 20.7829 5.83386H20.7985C21.7607 5.83386 22.5407 6.61736 22.5407 7.58386ZM12.8948 12.246C12.8924 11.7627 12.4985 11.373 12.0153 11.3755C11.5321 11.3781 11.1424 11.7718 11.1449 12.2551L11.1584 14.825L8.97348 13.5824C8.55342 13.3435 8.01922 13.4902 7.7803 13.9103C7.54139 14.3303 7.68822 14.8646 8.10828 15.1035L10.3086 16.355L8.11165 17.6766C7.69756 17.9257 7.56379 18.4633 7.81289 18.8774C8.06199 19.2915 8.59961 19.4253 9.01372 19.1762L11.1744 17.8764L11.1877 20.4217C11.1902 20.905 11.584 21.2948 12.0672 21.2922C12.5506 21.2896 12.9402 20.8959 12.9377 20.4126L12.9242 17.8427L15.1082 19.0851C15.5282 19.324 16.0625 19.1773 16.3014 18.7573C16.5403 18.3371 16.3936 17.8029 15.9736 17.564L13.7739 16.3127L15.9709 14.9911C16.385 14.7421 16.5187 14.2045 16.2697 13.7903C16.0206 13.3762 15.483 13.2424 15.0689 13.4915L12.9083 14.7913L12.8948 12.246Z" fill="#FF4F00"/>
</g>
</svg>
